<svg xmlns="http://www.w3.org/2000/svg" viewBox="0 0 112 90" enable-background="new 0 0 112 90"><g fill="none" stroke-width="2" stroke-miterlimit="10"><g stroke="#fff"><path d="m47 5v19"/><path d="m47 66v19"/><path d="m8 45h38"/><path d="m64.762 65c-3.549 11.925-10.175 19.947-17.762 19.947-11.329 0-20.514-17.886-20.514-39.947 0-22.06 9.185-39.947 20.514-39.947 7.587 0 14.212 8.02 17.762 19.946"/><path d="M81.648,65C74.732,76.956,61.806,85,47,85
	C24.909,85,7,67.092,7,45S24.909,5,47,5c14.805,0,27.731,8.043,34.648,19.998"/></g><g stroke="#ffce00"><path d="m47 25h58v40h-58z"/><path d="M104.98 53.02 85.6 33.641 65.881 53.36 57.76 45.24 47 56"/></g></g></svg>