<?xml version="1.0" encoding="utf-8"?>
<!-- Generator: Adobe Illustrator 18.0.0, SVG Export Plug-In . SVG Version: 6.00 Build 0)  -->
<!DOCTYPE svg PUBLIC "-//W3C//DTD SVG 1.1//EN" "http://www.w3.org/Graphics/SVG/1.1/DTD/svg11.dtd">
<svg version="1.1" id="Layer_1" xmlns="http://www.w3.org/2000/svg" xmlns:xlink="http://www.w3.org/1999/xlink" x="0px" y="0px"
	 viewBox="172 390.1 240.3 62.9" enable-background="new 172 390.1 240.3 62.9" xml:space="preserve">
<g>
	<path d="M406.1,442.5l-4.3-10.3h-3l5.9,13.9l-0.4,1.2c-0.5,1.5-0.9,2.2-1.3,2.6c-0.3,0.3-1,0.8-2.1,0.8c-0.6,0-1.1-0.1-1.3-0.2
		l0.2,2.3c0.5,0.1,1,0.2,1.6,0.2c0.8,0,2.3-0.1,3.4-1.2c0.4-0.4,1.2-1.3,2.3-4.5l5.2-15.1h-2.8L406.1,442.5z M391.4,432.2h-2.6v14.5
		h2.6v-9.8c0.5-0.6,1-1.2,1.6-1.6c0.6-0.5,1.3-0.9,2.4-0.9c0.5,0,1.1,0.2,1.5,0.4l0.8-2.4c-0.6-0.3-1.2-0.5-2-0.5
		c-1,0-1.8,0.2-2.5,0.7c-0.6,0.4-1.2,0.9-1.7,1.5L391.4,432.2L391.4,432.2z M378.3,434.1c1.3,0,2.3,0.4,3.2,1.4c1,1.1,1.4,2.6,1.4,4
		c0,1.3-0.4,2.9-1.4,3.9c-0.8,1-1.9,1.4-3.2,1.4c-1.3,0-2.3-0.4-3.2-1.4c-1-1.1-1.4-2.6-1.4-3.9c0-1.4,0.4-2.9,1.4-4
		C376,434.5,377,434.1,378.3,434.1 M370.9,439.5c0,2.7,1,4.4,2,5.4c1.5,1.6,3.5,2.1,5.4,2.1c1.7,0,3.8-0.3,5.5-2.1
		c0.9-0.9,2-2.6,2-5.5c0-2.3-0.8-4.4-2.2-5.7c-1.1-1.1-2.9-1.9-5.1-1.9c-3,0-4.6,1.4-5.3,2C372,434.9,370.9,436.8,370.9,439.5
		 M362.6,432.2h-2.2v2.2h2.2v7.9c0,1.2,0,2.8,1.1,3.8c0.8,0.8,2,0.9,2.9,0.9c0.6,0,1.3,0,2-0.2c0.5-0.1,0.9-0.3,1.3-0.5l-0.9-2
		c-0.2,0.1-0.5,0.2-0.7,0.3c-0.3,0.1-0.9,0.2-1.2,0.2c-0.6,0-1.1-0.2-1.4-0.4c-0.5-0.5-0.5-1.4-0.5-2.3v-7.6h3v-2.2h-3v-3.8h-2.6
		V432.2z M357.4,443.2c-1.5,1.4-3,1.6-3.8,1.6c-1.2,0-2.2-0.4-3-1.1c-0.7-0.7-1.4-2-1.4-4c0-1.6,0.4-3.3,1.5-4.4
		c0.6-0.6,1.5-1.1,3-1.1c0.9,0,2.1,0.2,3.7,1.4l1.5-1.8c-1.7-1.5-3.6-1.8-5.2-1.8c-2,0-3.8,0.5-5.3,2.1c-1.7,1.8-2,4-2,5.6
		c0,2.8,1,4.5,2,5.5c1.6,1.6,3.6,1.9,5.3,1.9c1.4,0,3.7-0.2,5.5-2.3L357.4,443.2z M340.3,442.5c-0.6,0.7-1.6,1.5-2.4,1.9
		c-0.7,0.3-1.3,0.4-1.8,0.4c-0.6,0-1.3-0.1-1.9-0.6c-0.2-0.2-0.6-0.7-0.6-1.5c0-0.8,0.4-1.3,0.7-1.6c0.5-0.5,1.5-0.8,2.3-1
		c1.2-0.2,3.5-0.3,3.7-0.3V442.5z M333.1,435.4c0.7-0.4,1.3-0.7,2-0.9c0.7-0.2,1.4-0.4,2.3-0.4c0.7,0,1.7,0.1,2.2,0.6
		c0.7,0.6,0.7,1.7,0.7,2.6v0.2c-1.2,0-2.8,0.1-4.2,0.3c-1.1,0.2-2.9,0.5-4.1,1.7c-0.6,0.6-1.3,1.6-1.3,3.1c0,1.5,0.6,2.6,1.3,3.2
		c1.1,1.1,2.4,1.2,3.6,1.2c1.4,0,2.4-0.3,3.1-0.6c0.7-0.3,1.4-1,1.9-1.5c0.2,0.6,0.5,1.2,1,1.6c0.6,0.4,1.5,0.7,2.5,0.4l0.4-2.2
		c-0.5,0.1-1,0-1.2-0.3c-0.4-0.4-0.3-1.4-0.3-2.1v-5c0-1.1,0-2.8-1.1-4c-0.7-0.8-2-1.4-4.3-1.4c-1.9,0-3.8,0.4-5.7,1.7L333.1,435.4z
		 M321.1,427.6h9.3V425h-12.3v21.7h3v-10.3h7.6v-2.6h-7.6V427.6z M303.5,442.5c-0.6,0.7-1.6,1.5-2.4,1.9c-0.7,0.3-1.3,0.4-1.8,0.4
		c-0.6,0-1.3-0.1-1.9-0.6c-0.2-0.2-0.6-0.7-0.6-1.5c0-0.8,0.4-1.3,0.7-1.6c0.5-0.5,1.5-0.8,2.3-1c1.2-0.2,3.5-0.3,3.7-0.3V442.5z
		 M296.3,435.4c0.7-0.4,1.3-0.7,2-0.9c0.7-0.2,1.4-0.4,2.3-0.4c0.7,0,1.7,0.1,2.2,0.6c0.7,0.6,0.7,1.7,0.7,2.6v0.2
		c-1.2,0-2.8,0.1-4.1,0.3c-1.1,0.2-2.9,0.5-4.1,1.7c-0.6,0.6-1.3,1.6-1.3,3.1c0,1.5,0.7,2.6,1.3,3.2c1.1,1.1,2.4,1.2,3.6,1.2
		c1.4,0,2.4-0.3,3.1-0.6c0.7-0.3,1.4-1,1.9-1.5c0.2,0.6,0.5,1.2,1,1.6c0.6,0.4,1.5,0.7,2.5,0.4l0.4-2.2c-0.5,0.1-1,0-1.2-0.3
		c-0.4-0.4-0.3-1.4-0.3-2.1v-5c0-1.1,0-2.8-1.1-4c-0.7-0.8-2-1.4-4.3-1.4c-1.9,0-3.8,0.4-5.7,1.7L296.3,435.4z M285.7,432.2h-2.2
		v2.2h2.2v7.9c0,1.2,0,2.8,1.1,3.8c0.8,0.8,2,0.9,2.9,0.9c0.6,0,1.3,0,2-0.2c0.5-0.1,0.9-0.3,1.3-0.5l-0.9-2
		c-0.2,0.1-0.5,0.2-0.7,0.3c-0.3,0.1-0.9,0.2-1.2,0.2c-0.6,0-1.1-0.2-1.4-0.4c-0.5-0.5-0.5-1.4-0.5-2.3v-7.6h3v-2.2h-3v-3.8h-2.6
		L285.7,432.2L285.7,432.2z M278,442.5c-0.6,0.7-1.6,1.5-2.4,1.9c-0.6,0.3-1.3,0.4-1.8,0.4c-0.6,0-1.3-0.1-1.9-0.6
		c-0.2-0.2-0.6-0.7-0.6-1.5c0-0.8,0.4-1.3,0.7-1.6c0.5-0.5,1.5-0.8,2.3-1c1.2-0.2,3.5-0.3,3.7-0.3V442.5z M270.7,435.4
		c0.7-0.4,1.3-0.7,2-0.9c0.7-0.2,1.4-0.4,2.3-0.4c0.7,0,1.7,0.1,2.2,0.6c0.7,0.6,0.7,1.7,0.7,2.6v0.2c-1.2,0-2.9,0.1-4.2,0.3
		c-1.1,0.2-2.9,0.5-4.1,1.7c-0.6,0.6-1.3,1.6-1.3,3.1c0,1.5,0.6,2.6,1.3,3.2c1.1,1.1,2.4,1.2,3.6,1.2c1.4,0,2.4-0.3,3.1-0.6
		c0.7-0.3,1.4-1,1.9-1.5c0.2,0.6,0.5,1.2,1,1.6c0.6,0.4,1.5,0.7,2.5,0.4l0.4-2.2c-0.5,0.1-1,0-1.2-0.3c-0.4-0.4-0.3-1.4-0.3-2.1v-5
		c0-1.1,0-2.8-1.1-4c-0.7-0.8-2-1.4-4.3-1.4c-1.9,0-3.8,0.4-5.7,1.7L270.7,435.4z M252.3,427.6h2.7c2.3,0,4.6,0.3,6,1.8
		c1.8,1.8,1.8,4.9,1.8,6.4c0,1.5-0.1,4.7-1.8,6.5c-1.5,1.5-3.8,1.8-6,1.8h-2.7V427.6z M249.3,425v21.7h5.3c3.4,0,6.5-0.4,8.7-2.6
		c2.4-2.4,2.7-5.8,2.7-8.1c0-5-1.6-7.4-2.8-8.5c-1.4-1.3-4-2.5-8.6-2.5L249.3,425L249.3,425z"/>
	<path d="M336.9,397.4l-3.4,4.8l-3.4-4.8H327l5,6.8l-5.7,7.7h3.2l4.1-5.7l4.1,5.7h3.2l-5.7-7.7l5-6.8H336.9z M323.4,408.4
		c-1.5,1.5-3.2,1.6-4,1.6c-2.2,0-4.2-1.8-4.3-4.8h10.4c0-3.3-1.4-8.1-6.5-8.1c-4.6,0-6.8,4-6.8,7.7c0,2.2,0.8,4.2,2.1,5.5
		c1.6,1.7,3.4,1.9,5.1,1.9c2.9,0,4.5-1,5.7-2.3L323.4,408.4z M315.2,402.9c0.3-2.4,2-3.6,3.7-3.6c1.7,0,3.3,1.2,3.6,3.6H315.2z
		 M309.1,390.1h-2.6v8.8c-1.4-1.7-3-1.9-4.2-1.9c-1.5,0-3.2,0.3-4.6,1.8c-0.9,0.9-2,2.7-2,6c0,2,0.4,4.1,2,5.7
		c1.3,1.3,2.6,1.6,4.2,1.6c1.3,0,3.2-0.2,4.6-1.9v1.5h2.6L309.1,390.1L309.1,390.1z M306.5,407.4c-0.6,0.9-1.4,1.5-1.7,1.7
		c-0.8,0.6-1.5,0.8-2.4,0.8c-1.3,0-2.2-0.5-2.8-1.4c-0.9-1.1-1.1-2.5-1.1-3.7c0-1,0.1-2.5,0.9-3.7c0.9-1.4,2.2-1.8,3.3-1.8
		c1.2,0,2.5,0.5,3.8,2.1L306.5,407.4L306.5,407.4z M280.5,397.4v14.5h2.6v-9.8c0.4-0.6,1-1.2,1.8-1.8c0.8-0.6,1.5-0.9,2.6-0.9
		c1.1,0,1.7,0.5,2,0.9c0.3,0.5,0.5,1.3,0.5,2.4v9.3h2.6v-9.3c0-1.5-0.1-3.2-1.2-4.3c-1.1-1.1-2.7-1.2-3.5-1.2c-1,0-1.9,0.1-2.8,0.6
		c-0.9,0.5-1.7,1.3-1.8,1.4v-1.7H280.5L280.5,397.4z M273.5,407.6c-0.6,0.7-1.6,1.5-2.4,1.9c-0.7,0.3-1.3,0.4-1.8,0.4
		c-0.6,0-1.3-0.1-1.9-0.6c-0.2-0.2-0.6-0.7-0.6-1.5c0-0.8,0.4-1.3,0.7-1.6c0.5-0.5,1.5-0.8,2.3-1c1.2-0.2,3.5-0.3,3.7-0.3V407.6z
		 M266.2,400.5c0.7-0.4,1.3-0.7,2-0.9c0.7-0.2,1.4-0.4,2.3-0.4c0.7,0,1.7,0.1,2.2,0.7c0.7,0.6,0.7,1.7,0.7,2.6v0.2
		c-1.2,0-2.8,0.1-4.1,0.3c-1.1,0.2-2.9,0.5-4.1,1.7c-0.6,0.6-1.3,1.6-1.3,3.1c0,1.5,0.7,2.6,1.3,3.2c1.1,1.1,2.4,1.2,3.6,1.2
		c1.4,0,2.4-0.3,3.1-0.7c0.7-0.3,1.4-1,1.9-1.5c0.2,0.6,0.5,1.2,1,1.6c0.6,0.4,1.5,0.7,2.5,0.4l0.4-2.2c-0.5,0.1-1,0-1.2-0.3
		c-0.4-0.4-0.3-1.4-0.3-2.1v-5c0-1.1,0-2.8-1.1-4c-0.7-0.8-2-1.4-4.3-1.4c-1.9,0-3.8,0.4-5.7,1.7L266.2,400.5z M256.3,400.6
		l-5.7-10.4h-3.3l7.6,13.4v8.3h3v-8.3l7.6-13.4h-3.3L256.3,400.6z"/>
	<g>
		<polygon fill="#FFCC00" points="215.5,390.7 172,390.7 172,418.9 193.6,418.9 202.3,432.9 193.7,446.8 215.5,446.8 232.9,418.8 		
			"/>
		<polygon fill="#FF0000" points="179.4,446.8 172,446.8 172,437.2 179.4,437.2 182.4,442 		"/>
	</g>
</g>
</svg>
