<?xml version="1.0" encoding="UTF-8" standalone="no"?>
<svg width="241px" height="63px" viewBox="0 0 241 63" version="1.1" xmlns="http://www.w3.org/2000/svg" xmlns:xlink="http://www.w3.org/1999/xlink">
    <!-- Generator: Sketch 3.6.1 (26313) - http://www.bohemiancoding.com/sketch -->
    <title>ydf-logo</title>
    <desc>Created with Sketch.</desc>
    <defs></defs>
    <g id="Page-1" stroke="none" stroke-width="1" fill="none" fill-rule="evenodd">
        <g id="ydf-logo" fill="#FFFFFF">
            <g id="Group">
                <path d="M234.1,52.5 L229.8,42.2 L226.8,42.2 L232.7,56.1 L232.3,57.3 C231.8,58.8 231.4,59.5 231,59.9 C230.7,60.2 230,60.7 228.9,60.7 C228.3,60.7 227.8,60.6 227.6,60.5 L227.8,62.8 C228.3,62.9 228.8,63 229.4,63 C230.2,63 231.7,62.9 232.8,61.8 C233.2,61.4 234,60.5 235.1,57.3 L240.3,42.2 L237.5,42.2 L234.1,52.5 L234.1,52.5 Z M219.4,42.2 L216.8,42.2 L216.8,56.7 L219.4,56.7 L219.4,46.9 C219.9,46.3 220.4,45.7 221,45.3 C221.6,44.8 222.3,44.4 223.4,44.4 C223.9,44.4 224.5,44.6 224.9,44.8 L225.7,42.4 C225.1,42.1 224.5,41.9 223.7,41.9 C222.7,41.9 221.9,42.1 221.2,42.6 C220.6,43 220,43.5 219.5,44.1 L219.4,42.2 L219.4,42.2 L219.4,42.2 Z M206.3,44.1 C207.6,44.1 208.6,44.5 209.5,45.5 C210.5,46.6 210.9,48.1 210.9,49.5 C210.9,50.8 210.5,52.4 209.5,53.4 C208.7,54.4 207.6,54.8 206.3,54.8 C205,54.8 204,54.4 203.1,53.4 C202.1,52.3 201.7,50.8 201.7,49.5 C201.7,48.1 202.1,46.6 203.1,45.5 C204,44.5 205,44.1 206.3,44.1 L206.3,44.1 Z M198.9,49.5 C198.9,52.2 199.9,53.9 200.9,54.9 C202.4,56.5 204.4,57 206.3,57 C208,57 210.1,56.7 211.8,54.9 C212.7,54 213.8,52.3 213.8,49.4 C213.8,47.1 213,45 211.6,43.7 C210.5,42.6 208.7,41.8 206.5,41.8 C203.5,41.8 201.9,43.2 201.2,43.8 C200,44.9 198.9,46.8 198.9,49.5 L198.9,49.5 Z M190.6,42.2 L188.4,42.2 L188.4,44.4 L190.6,44.4 L190.6,52.3 C190.6,53.5 190.6,55.1 191.7,56.1 C192.5,56.9 193.7,57 194.6,57 C195.2,57 195.9,57 196.6,56.8 C197.1,56.7 197.5,56.5 197.9,56.3 L197,54.3 C196.8,54.4 196.5,54.5 196.3,54.6 C196,54.7 195.4,54.8 195.1,54.8 C194.5,54.8 194,54.6 193.7,54.4 C193.2,53.9 193.2,53 193.2,52.1 L193.2,44.5 L196.2,44.5 L196.2,42.3 L193.2,42.3 L193.2,38.5 L190.6,38.5 L190.6,42.2 L190.6,42.2 Z M185.4,53.2 C183.9,54.6 182.4,54.8 181.6,54.8 C180.4,54.8 179.4,54.4 178.6,53.7 C177.9,53 177.2,51.7 177.2,49.7 C177.2,48.1 177.6,46.4 178.7,45.3 C179.3,44.7 180.2,44.2 181.7,44.2 C182.6,44.2 183.8,44.4 185.4,45.6 L186.9,43.8 C185.2,42.3 183.3,42 181.7,42 C179.7,42 177.9,42.5 176.4,44.1 C174.7,45.9 174.4,48.1 174.4,49.7 C174.4,52.5 175.4,54.2 176.4,55.2 C178,56.8 180,57.1 181.7,57.1 C183.1,57.1 185.4,56.9 187.2,54.8 L185.4,53.2 L185.4,53.2 Z M168.3,52.5 C167.7,53.2 166.7,54 165.9,54.4 C165.2,54.7 164.6,54.8 164.1,54.8 C163.5,54.8 162.8,54.7 162.2,54.2 C162,54 161.6,53.5 161.6,52.7 C161.6,51.9 162,51.4 162.3,51.1 C162.8,50.6 163.8,50.3 164.6,50.1 C165.8,49.9 168.1,49.8 168.3,49.8 L168.3,52.5 L168.3,52.5 Z M161.1,45.4 C161.8,45 162.4,44.7 163.1,44.5 C163.8,44.3 164.5,44.1 165.4,44.1 C166.1,44.1 167.1,44.2 167.6,44.7 C168.3,45.3 168.3,46.4 168.3,47.3 L168.3,47.5 C167.1,47.5 165.5,47.6 164.1,47.8 C163,48 161.2,48.3 160,49.5 C159.4,50.1 158.7,51.1 158.7,52.6 C158.7,54.1 159.3,55.2 160,55.8 C161.1,56.9 162.4,57 163.6,57 C165,57 166,56.7 166.7,56.4 C167.4,56.1 168.1,55.4 168.6,54.9 C168.8,55.5 169.1,56.1 169.6,56.5 C170.2,56.9 171.1,57.2 172.1,56.9 L172.5,54.7 C172,54.8 171.5,54.7 171.3,54.4 C170.9,54 171,53 171,52.3 L171,47.3 C171,46.2 171,44.5 169.9,43.3 C169.2,42.5 167.9,41.9 165.6,41.9 C163.7,41.9 161.8,42.3 159.9,43.6 L161.1,45.4 L161.1,45.4 Z M149.1,37.6 L158.4,37.6 L158.4,35 L146.1,35 L146.1,56.7 L149.1,56.7 L149.1,46.4 L156.7,46.4 L156.7,43.8 L149.1,43.8 L149.1,37.6 L149.1,37.6 Z M131.5,52.5 C130.9,53.2 129.9,54 129.1,54.4 C128.4,54.7 127.8,54.8 127.3,54.8 C126.7,54.8 126,54.7 125.4,54.2 C125.2,54 124.8,53.5 124.8,52.7 C124.8,51.9 125.2,51.4 125.5,51.1 C126,50.6 127,50.3 127.8,50.1 C129,49.9 131.3,49.8 131.5,49.8 L131.5,52.5 L131.5,52.5 Z M124.3,45.4 C125,45 125.6,44.7 126.3,44.5 C127,44.3 127.7,44.1 128.6,44.1 C129.3,44.1 130.3,44.2 130.8,44.7 C131.5,45.3 131.5,46.4 131.5,47.3 L131.5,47.5 C130.3,47.5 128.7,47.6 127.4,47.8 C126.3,48 124.5,48.3 123.3,49.5 C122.7,50.1 122,51.1 122,52.6 C122,54.1 122.7,55.2 123.3,55.8 C124.4,56.9 125.7,57 126.9,57 C128.3,57 129.3,56.7 130,56.4 C130.7,56.1 131.4,55.4 131.9,54.9 C132.1,55.5 132.4,56.1 132.9,56.5 C133.5,56.9 134.4,57.2 135.4,56.9 L135.8,54.7 C135.3,54.8 134.8,54.7 134.6,54.4 C134.2,54 134.3,53 134.3,52.3 L134.3,47.3 C134.3,46.2 134.3,44.5 133.2,43.3 C132.5,42.5 131.2,41.9 128.9,41.9 C127,41.9 125.1,42.3 123.2,43.6 L124.3,45.4 L124.3,45.4 Z M113.7,42.2 L111.5,42.2 L111.5,44.4 L113.7,44.4 L113.7,52.3 C113.7,53.5 113.7,55.1 114.8,56.1 C115.6,56.9 116.8,57 117.7,57 C118.3,57 119,57 119.7,56.8 C120.2,56.7 120.6,56.5 121,56.3 L120.1,54.3 C119.9,54.4 119.6,54.5 119.4,54.6 C119.1,54.7 118.5,54.8 118.2,54.8 C117.6,54.8 117.1,54.6 116.8,54.4 C116.3,53.9 116.3,53 116.3,52.1 L116.3,44.5 L119.3,44.5 L119.3,42.3 L116.3,42.3 L116.3,38.5 L113.7,38.5 L113.7,42.2 L113.7,42.2 L113.7,42.2 Z M106,52.5 C105.4,53.2 104.4,54 103.6,54.4 C103,54.7 102.3,54.8 101.8,54.8 C101.2,54.8 100.5,54.7 99.9,54.2 C99.7,54 99.3,53.5 99.3,52.7 C99.3,51.9 99.7,51.4 100,51.1 C100.5,50.6 101.5,50.3 102.3,50.1 C103.5,49.9 105.8,49.8 106,49.8 L106,52.5 L106,52.5 Z M98.7,45.4 C99.4,45 100,44.7 100.7,44.5 C101.4,44.3 102.1,44.1 103,44.1 C103.7,44.1 104.7,44.2 105.2,44.7 C105.9,45.3 105.9,46.4 105.9,47.3 L105.9,47.5 C104.7,47.5 103,47.6 101.7,47.8 C100.6,48 98.8,48.3 97.6,49.5 C97,50.1 96.3,51.1 96.3,52.6 C96.3,54.1 96.9,55.2 97.6,55.8 C98.7,56.9 100,57 101.2,57 C102.6,57 103.6,56.7 104.3,56.4 C105,56.1 105.7,55.4 106.2,54.9 C106.4,55.5 106.7,56.1 107.2,56.5 C107.8,56.9 108.7,57.2 109.7,56.9 L110.1,54.7 C109.6,54.8 109.1,54.7 108.9,54.4 C108.5,54 108.6,53 108.6,52.3 L108.6,47.3 C108.6,46.2 108.6,44.5 107.5,43.3 C106.8,42.5 105.5,41.9 103.2,41.9 C101.3,41.9 99.4,42.3 97.5,43.6 L98.7,45.4 L98.7,45.4 Z M80.3,37.6 L83,37.6 C85.3,37.6 87.6,37.9 89,39.4 C90.8,41.2 90.8,44.3 90.8,45.8 C90.8,47.3 90.7,50.5 89,52.3 C87.5,53.8 85.2,54.1 83,54.1 L80.3,54.1 L80.3,37.6 L80.3,37.6 Z M77.3,35 L77.3,56.7 L82.6,56.7 C86,56.7 89.1,56.3 91.3,54.1 C93.7,51.7 94,48.3 94,46 C94,41 92.4,38.6 91.2,37.5 C89.8,36.2 87.2,35 82.6,35 L77.3,35 L77.3,35 L77.3,35 Z" id="Shape"></path>
                <path d="M164.9,7.4 L161.5,12.2 L158.1,7.4 L155,7.4 L160,14.2 L154.3,21.9 L157.5,21.9 L161.6,16.2 L165.7,21.9 L168.9,21.9 L163.2,14.2 L168.2,7.4 L164.9,7.4 L164.9,7.4 Z M151.4,18.4 C149.9,19.9 148.2,20 147.4,20 C145.2,20 143.2,18.2 143.1,15.2 L153.5,15.2 C153.5,11.9 152.1,7.1 147,7.1 C142.4,7.1 140.2,11.1 140.2,14.8 C140.2,17 141,19 142.3,20.3 C143.9,22 145.7,22.2 147.4,22.2 C150.3,22.2 151.9,21.2 153.1,19.9 L151.4,18.4 L151.4,18.4 Z M143.2,12.9 C143.5,10.5 145.2,9.3 146.9,9.3 C148.6,9.3 150.2,10.5 150.5,12.9 L143.2,12.9 L143.2,12.9 Z M137.1,0.1 L134.5,0.1 L134.5,8.9 C133.1,7.2 131.5,7 130.3,7 C128.8,7 127.1,7.3 125.7,8.8 C124.8,9.7 123.7,11.5 123.7,14.8 C123.7,16.8 124.1,18.9 125.7,20.5 C127,21.8 128.3,22.1 129.9,22.1 C131.2,22.1 133.1,21.9 134.5,20.2 L134.5,21.7 L137.1,21.7 L137.1,0.1 L137.1,0.1 L137.1,0.1 Z M134.5,17.4 C133.9,18.3 133.1,18.9 132.8,19.1 C132,19.7 131.3,19.9 130.4,19.9 C129.1,19.9 128.2,19.4 127.6,18.5 C126.7,17.4 126.5,16 126.5,14.8 C126.5,13.8 126.6,12.3 127.4,11.1 C128.3,9.7 129.6,9.3 130.7,9.3 C131.9,9.3 133.2,9.8 134.5,11.4 L134.5,17.4 L134.5,17.4 L134.5,17.4 Z M108.5,7.4 L108.5,21.9 L111.1,21.9 L111.1,12.1 C111.5,11.5 112.1,10.9 112.9,10.3 C113.7,9.7 114.4,9.4 115.5,9.4 C116.6,9.4 117.2,9.9 117.5,10.3 C117.8,10.8 118,11.6 118,12.7 L118,22 L120.6,22 L120.6,12.7 C120.6,11.2 120.5,9.5 119.4,8.4 C118.3,7.3 116.7,7.2 115.9,7.2 C114.9,7.2 114,7.3 113.1,7.8 C112.2,8.3 111.4,9.1 111.3,9.2 L111.3,7.5 L108.5,7.5 L108.5,7.4 L108.5,7.4 Z M101.5,17.6 C100.9,18.3 99.9,19.1 99.1,19.5 C98.4,19.8 97.8,19.9 97.3,19.9 C96.7,19.9 96,19.8 95.4,19.3 C95.2,19.1 94.8,18.6 94.8,17.8 C94.8,17 95.2,16.5 95.5,16.2 C96,15.7 97,15.4 97.8,15.2 C99,15 101.3,14.9 101.5,14.9 L101.5,17.6 L101.5,17.6 Z M94.2,10.5 C94.9,10.1 95.5,9.8 96.2,9.6 C96.9,9.4 97.6,9.2 98.5,9.2 C99.2,9.2 100.2,9.3 100.7,9.9 C101.4,10.5 101.4,11.6 101.4,12.5 L101.4,12.7 C100.2,12.7 98.6,12.8 97.3,13 C96.2,13.2 94.4,13.5 93.2,14.7 C92.6,15.3 91.9,16.3 91.9,17.8 C91.9,19.3 92.6,20.4 93.2,21 C94.3,22.1 95.6,22.2 96.8,22.2 C98.2,22.2 99.2,21.9 99.9,21.5 C100.6,21.2 101.3,20.5 101.8,20 C102,20.6 102.3,21.2 102.8,21.6 C103.4,22 104.3,22.3 105.3,22 L105.7,19.8 C105.2,19.9 104.7,19.8 104.5,19.5 C104.1,19.1 104.2,18.1 104.2,17.4 L104.2,12.4 C104.2,11.3 104.2,9.6 103.1,8.4 C102.4,7.6 101.1,7 98.8,7 C96.9,7 95,7.4 93.1,8.7 L94.2,10.5 L94.2,10.5 Z M84.3,10.6 L78.6,0.2 L75.3,0.2 L82.9,13.6 L82.9,21.9 L85.9,21.9 L85.9,13.6 L93.5,0.2 L90.2,0.2 L84.3,10.6 L84.3,10.6 Z" id="Shape"></path>
                <g id="Shape">
                    <path d="M43.5,0.7 L0,0.7 L0,28.9 L21.6,28.9 L30.3,42.9 L21.7,56.8 L43.5,56.8 L60.9,28.8 L43.5,0.7 Z"></path>
                    <path d="M7.4,56.8 L0,56.8 L0,47.2 L7.4,47.2 L10.4,52 L7.4,56.8 Z"></path>
                </g>
            </g>
        </g>
    </g>
</svg>